<?xml version="1.0" standalone="no"?>
<!DOCTYPE svg PUBLIC "-//W3C//DTD SVG 20010904//EN"
 "http://www.w3.org/TR/2001/REC-SVG-20010904/DTD/svg10.dtd">
<svg version="1.0" xmlns="http://www.w3.org/2000/svg"
 width="80.000000pt" height="80.000000pt" viewBox="0 0 80.000000 80.000000"
 preserveAspectRatio="xMidYMid meet">
<metadata>
Created by potrace 1.10, written by Peter Selinger 2001-2011
</metadata>
<g transform="translate(0.000000,80.000000) scale(0.050000,-0.050000)"
fill="#000000" stroke="none">
<path d="M591 1529 c-12 -64 -111 -183 -139 -166 -27 17 -191 -254 -203 -336
-8 -47 -21 -82 -31 -76 -10 6 -12 -3 -6 -19 6 -17 -16 -88 -49 -159 -59 -124
-73 -242 -64 -525 1 -54 94 -154 149 -163 23 -3 45 -15 49 -26 3 -10 15 -19
26 -19 11 0 14 9 7 20 -7 12 16 20 57 20 53 0 73 -10 83 -40 12 -38 30 -40
299 -40 271 0 437 28 398 66 -8 8 11 14 40 14 30 0 59 -14 66 -30 14 -37 67
-40 67 -3 0 15 23 37 50 49 28 13 50 32 50 44 0 11 12 20 26 20 14 0 27 20 29
45 2 24 13 48 25 52 14 4 15 15 3 30 -10 13 -22 109 -27 213 -6 141 -19 211
-50 270 -23 45 -47 113 -54 154 -18 112 -87 273 -141 327 -27 27 -56 60 -65
75 -9 14 -49 51 -89 81 -50 38 -77 76 -86 124 l-13 69 -197 0 -197 0 -13 -71z
m267 3 c18 -21 15 -44 -12 -99 -37 -73 -86 -98 -86 -43 0 17 -10 47 -23 68
-50 79 61 147 121 74z m42 -233 c208 -48 320 -194 320 -419 0 -67 9 -120 20
-120 68 0 100 -81 100 -250 0 -101 10 -187 25 -210 30 -49 0 -110 -55 -110
-55 0 -85 61 -55 110 34 54 34 246 0 235 -14 -4 -30 -52 -37 -107 -26 -215
-82 -248 -417 -248 -329 0 -397 40 -420 248 -16 143 -61 146 -61 5 0 -61 9
-116 20 -123 37 -23 22 -107 -21 -120 -71 -23 -140 82 -79 120 11 7 20 93 20
191 0 177 31 259 97 259 10 0 22 66 27 148 15 224 108 343 308 390 104 24 105
24 208 1z m60 -1164 c0 -43 -86 -95 -157 -95 -75 0 -194 66 -175 97 11 18 332
17 332 -2z"/>
<path d="M624 1147 c-105 -52 -166 -227 -99 -283 14 -12 133 -20 275 -20 271
0 300 9 300 99 0 193 -267 307 -476 204z m13 -145 c36 -23 21 -90 -22 -98 -39
-8 -65 40 -48 86 13 34 31 37 70 12z m383 -12 c29 -35 13 -90 -27 -90 -49 0
-82 55 -53 90 31 38 49 38 80 0z"/>
<path d="M847 669 c-18 -45 24 -82 59 -52 15 12 34 16 42 8 28 -27 135 -21
146 9 17 44 -26 78 -61 48 -21 -17 -33 -18 -43 -2 -10 16 -21 16 -40 0 -18
-15 -30 -15 -39 -1 -19 31 -50 26 -64 -10z"/>
</g>
</svg>
